HIERARCHY
ROOT Hips
{
    OFFSET 0.000000 0.000000 0.000000
    CHANNELS 6 Xposition Yposition Zposition Zrotation Xrotation Yrotation
    JOINT Spine
    {
        OFFSET -0.000000 14.517291 0.000000
        CHANNELS 3 Zrotation Xrotation Yrotation
        JOINT Spine1
        {
            OFFSET -0.000000 37.558300 0.000000
            CHANNELS 3 Zrotation Xrotation Yrotation
            JOINT Neck
            {
                OFFSET -0.000000 37.404057 3.400369
                CHANNELS 3 Zrotation Xrotation Yrotation
                JOINT Head
                {
                    OFFSET -0.000000 24.785618 -3.540803
                    CHANNELS 3 Zrotation Xrotation Yrotation
                    End Site
                    {
                        OFFSET -0.000000 35.408028 0.000000
                    }
                }
            }
            JOINT LeftShoulder
            {
                OFFSET 6.992933 33.973492 -0.192664
                CHANNELS 3 Zrotation Xrotation Yrotation
                JOINT LeftArm
                {
                    OFFSET 21.527611 0.000000 0.000000
                    CHANNELS 3 Zrotation Xrotation Yrotation
                    JOINT LeftForeArm
                    {
                        OFFSET 56.353916 0.000000 0.000000
                        CHANNELS 3 Zrotation Xrotation Yrotation
                        JOINT LeftHand
                        {
                            OFFSET 47.774071 0.000000 0.000000
                            CHANNELS 3 Zrotation Xrotation Yrotation
                            End Site
                            {
                                OFFSET 26.556021 0.000000 0.000000
                            }
                        }
                    }
                }
            }
            JOINT RightShoulder
            {
                OFFSET -7.065357 33.973492 -0.192664
                CHANNELS 3 Zrotation Xrotation Yrotation
                JOINT RightArm
                {
                    OFFSET -21.527611 0.000000 0.000000
                    CHANNELS 3 Zrotation Xrotation Yrotation
                    JOINT RightForeArm
                    {
                        OFFSET -56.353916 0.000000 0.000000
                        CHANNELS 3 Zrotation Xrotation Yrotation
                        JOINT RightHand
                        {
                            OFFSET -47.774071 0.000000 0.000000
                            CHANNELS 3 Zrotation Xrotation Yrotation
                            End Site
                            {
                                OFFSET -26.556021 0.000000 0.000000
                            }
                        }
                    }
                }
            }
        }
    }
    JOINT LeftUpLeg
    {
        OFFSET 17.704014 0.000000 0.000000
        CHANNELS 3 Zrotation Xrotation Yrotation
        JOINT LeftLeg
        {
            OFFSET -0.000000 -81.181816 0.000000
            CHANNELS 3 Zrotation Xrotation Yrotation
            JOINT LeftFoot
            {
                OFFSET -0.000000 -62.821102 0.000000
                CHANNELS 3 Zrotation Xrotation Yrotation
                JOINT LeftToeBase
                {
                    OFFSET -0.000000 -11.507608 26.556021
                    CHANNELS 3 Zrotation Xrotation Yrotation
                    End Site
                    {
                        OFFSET -0.000000 0.000000 7.081605
                    }
                }
            }
        }
    }
    JOINT RightUpLeg
    {
        OFFSET -17.704014 0.000000 0.000000
        CHANNELS 3 Zrotation Xrotation Yrotation
        JOINT RightLeg
        {
            OFFSET -0.000000 -81.181816 0.000000
            CHANNELS 3 Zrotation Xrotation Yrotation
            JOINT RightFoot
            {
                OFFSET -0.000000 -62.821102 0.000000
                CHANNELS 3 Zrotation Xrotation Yrotation
                JOINT RightToeBase
                {
                    OFFSET -0.000000 -11.507608 26.556021
                    CHANNELS 3 Zrotation Xrotation Yrotation
                    End Site
                    {
                        OFFSET -0.000000 0.000000 7.081605
                    }
                }
            }
        }
    }
}
MOTION
Frames:    10
Frame Time:    0.008333
-23.451838    169.534622    -17.461693    -11.353564    -32.299877    41.828098    2.680126    7.383147    -8.035351    -11.351653    -7.337049    -3.352965    15.111843    -4.980284    -6.487993    5.606219    2.494893    -9.011087    8.234303    7.902875    -23.631895    -33.415180    15.258854    -60.443489    -1.754701    -28.667881    -110.823616    -9.710879    -29.729233    -15.552857    8.371077    2.094512    -9.029714    27.094761    5.269190    26.818378    -18.610617    -4.574074    59.752033    -11.191464    3.049227    31.703505    34.467972    5.847425    2.208727    -3.162749    31.196064    -19.453957    3.661810    -17.442577    32.575336    0.000000    0.000000    0.000000    -78.615463    -45.614632    -46.764721    12.749957    24.553715    -7.445242    13.886036    16.823853    -21.498493    0.000000    0.000000    0.000000    
-23.439941    169.538101    -17.479286    -11.352506    -32.296520    41.822571    2.649770    7.358696    -8.004464    -11.339123    -7.304872    -3.339486    15.090137    -4.957493    -6.500658    5.681346    2.473433    -9.006931    8.241816    7.918271    -23.620274    -33.442074    15.245022    -60.413925    -1.852464    -28.568956    -110.844467    -9.644904    -29.767555    -15.498304    8.386609    2.107286    -9.026351    27.141460    5.186392    26.837435    -18.580235    -4.509357    59.748085    -11.209159    3.090267    31.700806    34.479431    5.857266    2.242451    -3.191828    31.178831    -19.452154    3.636080    -17.445480    32.568012    0.000000    0.000000    0.000000    -78.589455    -45.602673    -46.711723    12.738073    24.507639    -7.444835    13.973856    16.865326    -21.584974    0.000000    0.000000    0.000000    
-23.665989    169.418991    -17.504860    -11.735492    -31.969059    41.555565    2.458046    7.018194    -7.918193    -11.117447    -7.388063    -3.311275    15.075843    -4.933004    -6.501414    5.739664    2.456288    -8.993768    8.232617    7.929622    -23.618620    -33.443512    15.251455    -60.382839    -1.904735    -28.532698    -110.848846    -9.585089    -29.808941    -15.443179    8.393106    2.125245    -9.028123    27.159948    5.207481    26.879822    -18.608629    -4.547844    59.715000    -11.184826    3.071798    31.666792    34.597717    5.379340    2.640484    -3.284387    31.368170    -19.502136    3.685015    -17.579987    32.539143    0.000000    0.000000    0.000000    -79.078964    -45.904720    -47.360870    12.641014    24.569439    -7.532775    14.021309    17.062141    -21.601437    0.000000    0.000000    0.000000    
-23.404877    169.572739    -17.516045    -11.355921    -32.330086    41.834408    2.612878    7.321347    -7.971131    -11.285404    -7.204298    -3.315983    15.057875    -4.946727    -6.508252    5.800807    2.495306    -8.993820    8.241059    7.941316    -23.615047    -33.454914    15.240705    -60.374691    -1.967784    -28.482189    -110.849068    -9.572237    -29.841661    -15.422766    8.411292    2.127613    -9.042581    27.169970    5.246470    26.928843    -18.670618    -4.582319    59.662769    -11.139554    3.075832    31.665897    34.513321    5.902477    2.321450    -3.181710    31.106123    -19.490976    3.576864    -17.418312    32.544300    0.000000    0.000000    0.000000    -78.459579    -45.540905    -46.606712    12.698554    24.435064    -7.435071    13.987203    16.903461    -21.544287    0.000000    0.000000    0.000000    
-23.389015    169.597595    -17.536350    -11.375095    -32.353779    41.825497    2.620902    7.291642    -7.957563    -11.273751    -7.145195    -3.304902    15.054347    -4.952454    -6.507185    5.845421    2.541404    -8.989789    8.250937    7.961826    -23.614697    -33.443027    15.232175    -60.371632    -2.001902    -28.467476    -110.837570    -9.530708    -29.878136    -15.374103    8.437250    2.137544    -9.048236    27.173325    5.283464    26.991158    -18.706663    -4.606129    59.606312    -11.149771    3.055066    31.694782    34.540733    5.920105    2.358703    -3.169476    31.077814    -19.527481    3.552540    -17.402285    32.550068    0.000000    0.000000    0.000000    -78.385422    -45.518997    -46.538216    12.704874    24.402109    -7.421469    14.004109    16.885073    -21.567923    0.000000    0.000000    0.000000    
-23.374796    169.614273    -17.562454    -11.395041    -32.366516    41.825188    2.624960    7.264413    -7.949926    -11.246647    -7.098375    -3.296280    14.864265    -5.142802    -6.504819    6.176341    2.893187    -8.954498    8.241865    7.970317    -23.631197    -33.438988    15.237724    -60.339638    -2.047597    -28.470114    -110.854744    -9.566047    -29.940037    -15.304830    8.449454    2.152270    -9.045339    27.185173    5.292964    27.041882    -18.720211    -4.615168    59.578106    -11.131046    3.048704    31.736940    34.552460    5.916986    2.378832    -3.156865    31.056665    -19.546207    3.517282    -17.400463    32.563282    0.000000    0.000000    0.000000    -78.335114    -45.487621    -46.490017    12.717084    24.363642    -7.429674    14.000570    16.890036    -21.578775    0.000000    0.000000    0.000000    
-23.359398    169.640167    -17.582361    -11.408000    -32.398899    41.826626    2.636634    7.256285    -7.946380    -11.224475    -7.038782    -3.287514    15.075387    -4.997388    -6.493729    5.870471    2.690905    -8.990532    8.252565    7.977551    -23.631554    -33.416828    15.255821    -60.351650    -2.062712    -28.495121    -110.836952    -9.545628    -29.987070    -15.279688    8.479330    2.164224    -9.053224    27.185345    5.312839    27.110832    -18.744528    -4.626027    59.541912    -11.141772    3.037287    31.774170    34.572144    5.932330    2.368160    -3.145940    31.032587    -19.565044    3.492357    -17.372320    32.587975    0.000000    0.000000    0.000000    -78.258789    -45.463219    -46.446304    12.710188    24.351168    -7.429521    13.985712    16.872414    -21.553411    0.000000    0.000000    0.000000    
-23.344576    169.658157    -17.608881    -11.417670    -32.422665    41.831306    2.649127    7.256497    -7.938657    -11.198103    -7.001355    -3.279367    15.105330    -5.002863    -6.483819    5.848176    2.749338    -8.992431    8.250988    7.981062    -23.659342    -33.407578    15.274083    -60.337894    -2.063453    -28.527079    -110.810509    -9.553679    -30.017555    -15.274839    8.498715    2.176860    -9.041065    27.177231    5.356933    27.140018    -18.780958    -4.660986    59.517284    -11.117841    3.026376    31.764381    34.582718    5.931800    2.325035    -3.157548    31.034330    -19.587748    3.496910    -17.354633    32.666145    0.000000    0.000000    0.000000    -78.205894    -45.437946    -46.394737    12.719716    24.334751    -7.447664    13.977938    16.859798    -21.557831    0.000000    0.000000    0.000000    
-23.334223    169.664841    -17.636412    -11.440580    -32.416756    41.837822    2.652745    7.224400    -7.936769    -11.161794    -6.962263    -3.272966    14.900509    -5.192145    -6.483536    6.193552    3.120549    -8.956273    8.239411    7.985577    -23.694229    -33.410488    15.281351    -60.312073    -2.069963    -28.546139    -110.795479    -9.531086    -30.049437    -15.234002    8.506212    2.207543    -9.027176    27.173407    5.380730    27.176929    -18.816736    -4.673787    59.498165    -11.105044    3.034189    31.764235    34.579517    5.899376    2.285681    -3.174741    31.031013    -19.544384    3.480152    -17.359106    32.688389    0.000000    0.000000    0.000000    -78.212502    -45.412067    -46.432076    12.728665    24.331223    -7.440936    13.961038    16.863668    -21.581156    0.000000    0.000000    0.000000    
-23.321823    169.677673    -17.666492    -11.456904    -32.411942    41.844631    2.656349    7.209095    -7.934413    -11.134947    -6.924491    -3.266891    14.910262    -5.212770    -6.480318    6.219161    3.197167    -8.958769    8.257800    7.990375    -23.711723    -33.424072    15.288086    -60.325073    -2.084389    -28.558075    -110.779457    -9.514859    -30.082706    -15.203735    8.524728    2.229495    -9.017098    27.164198    5.387839    27.206665    -18.821037    -4.676607    59.497715    -11.112318    3.027687    31.801445    34.572479    5.877804    2.239291    -3.193104    31.015646    -19.511885    3.467877    -17.342642    32.715721    0.000000    0.000000    0.000000    -78.216660    -45.388710    -46.432804    12.748336    24.322227    -7.478882    13.954965    16.863480    -21.600641    0.000000    0.000000    0.000000    
